<svg width="230" height="55" viewBox="0 0 230 55" fill="none" xmlns="http://www.w3.org/2000/svg">
<g clip-path="url(#clip0_205_491)">
<path d="M47.6696 0.80383C47.3611 0.625798 46.9932 0.575068 46.6467 0.662739C46.3001 0.750411 46.003 0.969345 45.8204 1.27163L36.149 17.3631C36.0994 17.4465 36.0594 17.5351 36.0296 17.6272C34.9475 18.0212 33.9375 18.5848 33.0389 19.2959C30.1084 14.4064 24.7392 11.3276 18.8733 11.3276C9.82226 11.3276 2.45979 18.5483 2.43456 27.4317H0.301025L0.491795 28.9239C1.60195 37.597 7.0481 45.1725 14.8789 49.1615V54.2826H35.0844C37.6456 54.2826 39.7293 52.2343 39.7293 49.7182V49.1621C47.5626 45.1713 53.0063 37.5958 54.1189 28.9239L54.3096 27.4305H50.4567C50.4389 22.8963 47.4783 19.0415 43.3601 17.5861L55.4266 6.18174C55.9632 5.67465 55.9804 4.83454 55.4623 4.30751C55.3395 4.18203 55.1927 4.08154 55.0304 4.01178C54.8681 3.94202 54.6933 3.90435 54.5162 3.90092C54.339 3.8975 54.1629 3.92839 53.9979 3.99183C53.8329 4.05526 53.6823 4.15001 53.5546 4.27064L40.1133 16.9762C39.9927 16.9714 39.8727 16.9581 39.7503 16.9581C39.6727 16.9581 39.5983 16.969 39.5219 16.9702L48.1459 2.62004C48.2361 2.47007 48.2953 2.30413 48.3202 2.13169C48.345 1.95925 48.3351 1.78369 48.2908 1.61504C48.2466 1.44638 48.169 1.28794 48.0624 1.14875C47.9558 1.00956 47.8223 0.892356 47.6696 0.80383ZM18.8727 13.9803C24.0401 13.9803 28.7503 16.8372 31.093 21.3134C30.2389 22.4671 29.6333 23.7798 29.3133 25.1712C28.2395 20.4763 23.9699 16.9569 18.8727 16.9569C12.9853 16.9569 8.19579 21.6519 8.17056 27.4311H5.13549C5.1601 20.0109 11.3115 13.9803 18.8727 13.9803ZM18.8727 22.5935C16.1466 22.5935 13.9281 24.7603 13.9029 27.4311H10.8721C10.8973 23.1145 14.4746 19.6102 18.8727 19.6102C23.2721 19.6102 26.853 23.1145 26.8758 27.4311H23.8413C23.8173 24.7603 21.5989 22.5935 18.8727 22.5935ZM21.1386 27.4317H16.6069C16.6189 26.8487 16.863 26.2934 17.2867 25.885C17.7104 25.4765 18.2802 25.2472 18.8739 25.2462C19.4674 25.2473 20.0368 25.4768 20.4601 25.8853C20.8834 26.2938 21.127 26.8489 21.1386 27.4317ZM51.1976 30.0844C49.6967 37.7928 44.3743 44.3644 36.9976 47.5121H32.6746V50.1654H36.9687C36.8676 50.5817 36.6269 50.9525 36.2852 51.2182C35.9435 51.4838 35.5208 51.6288 35.085 51.6299H17.5804V50.1654H22.6444V47.5121H17.613C10.2364 44.3662 4.91333 37.7928 3.41118 30.0844H51.1976ZM37.485 27.4317C37.4969 26.8489 37.7407 26.2939 38.164 25.8854C38.5874 25.4769 39.1568 25.2475 39.7503 25.2462C40.3443 25.2467 40.9144 25.4758 41.3385 25.8844C41.7625 26.2929 42.0066 26.8484 42.0186 27.4317H37.485ZM39.7503 19.6108C44.1515 19.6108 47.7336 23.1151 47.757 27.4317H44.7207C44.6961 24.7609 42.477 22.5941 39.7503 22.5941C37.0241 22.5941 34.8075 24.7609 34.7829 27.4317H31.7496C31.7743 23.1151 35.3515 19.6108 39.7503 19.6108Z" fill="white"/>
<path d="M39.1741 42.9139C39.3901 42.9139 39.6086 42.8637 39.8098 42.7568C41.4591 41.8897 42.9065 40.6947 44.0598 39.248C45.2131 37.8012 46.0469 36.1345 46.5082 34.3539C46.5524 34.1848 46.5622 34.0088 46.537 33.8361C46.5118 33.6633 46.4522 33.4971 46.3614 33.347C46.2707 33.1969 46.1507 33.0659 46.0083 32.9615C45.8659 32.8571 45.7039 32.7813 45.5316 32.7385C45.3593 32.6957 45.1801 32.6867 45.0043 32.7121C44.8285 32.7374 44.6595 32.7967 44.507 32.8863C44.3545 32.976 44.2215 33.0943 44.1157 33.2346C44.0099 33.3748 43.9334 33.5342 43.8904 33.7035C43.5221 35.1266 42.856 36.4588 41.9345 37.6151C41.0131 38.7714 39.8565 39.7265 38.5384 40.4196C38.2726 40.5585 38.0618 40.7808 37.9395 41.051C37.8172 41.3213 37.7905 41.6239 37.8636 41.9108C37.9367 42.1976 38.1054 42.4522 38.3429 42.634C38.5804 42.8158 38.873 42.9143 39.1741 42.9139Z" fill="white"/>
<path d="M35.9059 45.0064C36.7903 45.0064 37.5072 44.3023 37.5072 43.4337C37.5072 42.5652 36.7903 41.8611 35.9059 41.8611C35.0216 41.8611 34.3047 42.5652 34.3047 43.4337C34.3047 44.3023 35.0216 45.0064 35.9059 45.0064Z" fill="white"/>
</g>
<path d="M83.914 16.9023C86.3098 16.9023 88.0522 17.2944 89.1412 18.0784C90.2302 18.8407 90.7747 19.8753 90.7747 21.1821C90.7747 22.3146 90.4154 23.3383 89.6966 24.2531C88.9997 25.1678 88.0413 25.941 86.8217 26.5726C85.602 27.1825 84.2189 27.6072 82.6726 27.8468C84.9812 28.021 86.6692 28.5873 87.7364 29.5456C88.8254 30.5039 89.3699 31.6474 89.3699 32.976C89.3699 34.1521 89.0868 35.1757 88.5205 36.0469C87.976 36.9181 87.2246 37.6478 86.2663 38.2358C85.3297 38.8239 84.2298 39.2704 82.9666 39.5753C81.7034 39.8584 80.3639 40 78.9482 40C78.2077 40 77.3909 39.9891 76.4979 39.9673C75.6267 39.9238 74.5486 39.902 73.2636 39.902C72.7191 39.902 72.1528 39.9129 71.5648 39.9347C70.9767 39.9347 70.4213 39.9456 69.8986 39.9673C69.3759 39.9673 68.9294 39.9782 68.5591 40L68.6898 39.3466C69.4303 39.303 70.0075 39.2159 70.4213 39.0852C70.8351 38.9546 71.1618 38.6932 71.4014 38.3012C71.641 37.9091 71.8588 37.3211 72.0548 36.537L76.3673 20.3327C76.5197 19.6793 76.6068 19.1565 76.6286 18.7645C76.6504 18.3507 76.4979 18.0458 76.1712 17.8497C75.8663 17.6319 75.2891 17.523 74.4397 17.523L74.6031 16.8696C74.9733 16.8914 75.4089 16.9132 75.9099 16.935C76.4326 16.935 76.988 16.9459 77.576 16.9676C78.1641 16.9676 78.7086 16.9676 79.2095 16.9676C80.1461 16.9676 80.9737 16.9568 81.6925 16.935C82.433 16.9132 83.1735 16.9023 83.914 16.9023ZM77.8047 28.2715L77.9354 27.7161H80.353C81.5945 27.7161 82.6508 27.4003 83.522 26.7686C84.415 26.1152 85.0901 25.2658 85.5475 24.2204C86.0267 23.175 86.2663 22.0751 86.2663 20.9207C86.2663 19.8317 86.0485 18.9932 85.6129 18.4051C85.199 17.8171 84.4694 17.523 83.424 17.523C82.6617 17.523 82.1172 17.6755 81.7905 17.9804C81.4638 18.2636 81.1806 18.8843 80.9411 19.8426L76.5306 36.537C76.3999 37.0815 76.3128 37.5606 76.2692 37.9745C76.2475 38.3883 76.3564 38.7041 76.5959 38.9219C76.8355 39.1397 77.282 39.2486 77.9354 39.2486C79.4818 39.2486 80.745 38.9546 81.7251 38.3665C82.7052 37.7784 83.4349 36.9726 83.914 35.9489C84.3932 34.9035 84.6328 33.7274 84.6328 32.4206C84.6328 31.6147 84.4912 30.9068 84.2081 30.297C83.9467 29.6654 83.522 29.1753 82.9339 28.8269C82.3459 28.4566 81.5618 28.2715 80.5817 28.2715H77.8047ZM97.0095 17.523C97.0749 16.7172 97.4016 16.0747 97.9896 15.5955C98.5777 15.1163 99.2638 14.8768 100.048 14.8768C100.767 14.8768 101.311 15.0837 101.681 15.4975C102.073 15.8895 102.237 16.4014 102.171 17.033C102.106 17.7735 101.779 18.3942 101.191 18.8952C100.603 19.3961 99.9172 19.6466 99.1331 19.6466C98.4143 19.6466 97.859 19.4506 97.4669 19.0585C97.0967 18.6447 96.9442 18.1329 97.0095 17.523ZM95.8661 25.9192C96.2581 24.7431 96.1274 24.1551 95.474 24.1551C95.0384 24.1551 94.6464 24.3837 94.2979 24.8411C93.9494 25.2767 93.5792 25.9846 93.1871 26.9647L92.6318 28.5002H92.011L92.8604 26.0499C93.1871 25.1787 93.5792 24.5035 94.0366 24.0244C94.4939 23.5234 95.0058 23.175 95.5721 22.9789C96.1383 22.7829 96.6937 22.6849 97.2382 22.6849C98.0005 22.6849 98.5777 22.8265 98.9697 23.1096C99.3618 23.3928 99.6231 23.763 99.7538 24.2204C99.8845 24.6778 99.9172 25.1787 99.8518 25.7232C99.7865 26.2459 99.6667 26.7578 99.4925 27.2587L96.0294 37.2231C95.8334 37.8111 95.779 38.2576 95.8661 38.5625C95.9532 38.8457 96.1601 38.9872 96.4868 38.9872C96.8353 38.9872 97.1838 38.8021 97.5323 38.4318C97.9025 38.0398 98.2946 37.2884 98.7084 36.1776L99.2638 34.7075H99.8845L99.0677 37.0924C98.741 37.9636 98.349 38.6496 97.8916 39.1506C97.4342 39.6297 96.9333 39.9673 96.3888 40.1634C95.8443 40.3594 95.3107 40.4574 94.788 40.4574C93.8297 40.4574 93.1327 40.2505 92.6971 39.8366C92.2615 39.4011 92.0437 38.813 92.0437 38.0725C92.0437 37.3102 92.2179 36.439 92.5664 35.4589L95.8661 25.9192ZM103.287 39.51C103.462 39.5971 103.647 39.6733 103.843 39.7386C104.039 39.7822 104.311 39.804 104.66 39.804C105.487 39.804 106.173 39.5426 106.718 39.0199C107.284 38.4754 107.567 37.724 107.567 36.7657C107.567 36.0687 107.415 35.3609 107.11 34.6421C106.827 33.9234 106.391 33.1284 105.803 32.2572C105.28 31.4949 104.801 30.7435 104.366 30.003C103.952 29.2625 103.745 28.413 103.745 27.4547C103.745 26.5182 103.974 25.7014 104.431 25.0045C104.888 24.2857 105.542 23.7195 106.391 23.3056C107.241 22.8918 108.232 22.6849 109.364 22.6849C110.105 22.6849 110.834 22.772 111.553 22.9463C112.272 23.1205 112.86 23.4363 113.317 23.8937C113.775 24.3511 114.003 25.0154 114.003 25.8866C114.003 26.1915 113.938 26.5182 113.807 26.8667C113.677 27.1934 113.481 27.4765 113.219 27.7161C112.958 27.9557 112.609 28.0755 112.174 28.0755C111.716 28.0755 111.335 27.9012 111.03 27.5527C110.725 27.1825 110.573 26.7142 110.573 26.1479C110.573 25.647 110.66 25.1787 110.834 24.7431C111.03 24.3075 111.259 23.9264 111.52 23.5997C111.215 23.4254 110.78 23.3383 110.214 23.3383C109.429 23.3383 108.798 23.5888 108.319 24.0897C107.84 24.5907 107.6 25.2985 107.6 26.2133C107.6 26.6924 107.676 27.1498 107.829 27.5854C108.003 27.9992 108.232 28.4348 108.515 28.8922C108.82 29.3278 109.157 29.8396 109.527 30.4277C110.137 31.4078 110.616 32.2899 110.965 33.074C111.313 33.8363 111.488 34.6203 111.488 35.4262C111.488 36.3845 111.226 37.2448 110.704 38.0071C110.203 38.7694 109.506 39.3684 108.613 39.804C107.72 40.2396 106.674 40.4574 105.476 40.4574C104.627 40.4574 103.81 40.3376 103.026 40.098C102.264 39.8802 101.632 39.51 101.131 38.9872C100.652 38.4645 100.413 37.7458 100.413 36.831C100.413 36.3301 100.554 35.8727 100.837 35.4589C101.099 35.0233 101.512 34.8055 102.079 34.8055C102.645 34.8055 103.07 35.0342 103.353 35.4915C103.636 35.9489 103.778 36.5152 103.778 37.1904C103.778 37.6695 103.712 38.116 103.582 38.5299C103.473 38.9219 103.375 39.2486 103.287 39.51ZM126.777 23.1423L126.679 23.7957H115.734L115.898 23.1423H126.777ZM118.838 37.2231C118.664 37.8329 118.685 38.2794 118.903 38.5625C119.143 38.8457 119.459 38.9872 119.851 38.9872C120.308 38.9872 120.765 38.7694 121.223 38.3338C121.702 37.8982 122.138 37.1359 122.53 36.0469L123.02 34.7075H123.64L122.987 36.6677C122.53 38.018 121.898 38.9872 121.092 39.5753C120.286 40.1633 119.328 40.4574 118.217 40.4574C117.237 40.4574 116.486 40.2396 115.963 39.804C115.462 39.3684 115.157 38.7803 115.048 38.0398C114.961 37.2775 115.059 36.4172 115.342 35.4589L120.275 18.2418C121.059 18.22 121.789 18.1764 122.464 18.1111C123.161 18.0458 123.815 17.9369 124.424 17.7844L118.838 37.2231ZM129.632 40H125.614L129.534 25.9192C129.73 25.2658 129.796 24.8085 129.73 24.5471C129.665 24.2857 129.469 24.1551 129.142 24.1551C128.729 24.1551 128.347 24.362 127.999 24.7758C127.65 25.1896 127.291 25.9192 126.921 26.9647L126.365 28.5002H125.745L126.594 26.0499C126.899 25.1787 127.28 24.5035 127.738 24.0244C128.195 23.5234 128.696 23.175 129.24 22.9789C129.785 22.7829 130.34 22.6849 130.907 22.6849C131.604 22.6849 132.115 22.8265 132.442 23.1096C132.791 23.3928 133.008 23.763 133.095 24.2204C133.204 24.6778 133.226 25.1787 133.161 25.7232C133.117 26.2459 133.03 26.7578 132.899 27.2587L129.632 40ZM137.996 23.4363C137.517 23.4363 137.027 23.6105 136.526 23.959C136.025 24.2857 135.502 24.8193 134.958 25.5599C134.413 26.3004 133.858 27.2805 133.291 28.5002C132.747 29.6981 132.181 31.1682 131.593 32.9106C131.005 34.6312 130.417 36.6677 129.828 39.0199L130.613 34.6748C131.288 32.3879 131.919 30.4821 132.507 28.9575C133.117 27.4112 133.705 26.1806 134.272 25.2658C134.86 24.3293 135.48 23.665 136.134 23.273C136.787 22.8809 137.495 22.6849 138.257 22.6849C139.041 22.6849 139.64 22.9136 140.054 23.371C140.49 23.8284 140.708 24.3946 140.708 25.0698C140.708 25.6143 140.577 26.1261 140.316 26.6053C140.054 27.0627 139.706 27.4329 139.27 27.7161C138.856 27.9774 138.377 28.1081 137.833 28.1081C137.288 28.1081 136.853 27.9666 136.526 27.6834C136.221 27.4003 136.068 26.9865 136.068 26.442C136.068 25.9628 136.177 25.5272 136.395 25.1352C136.613 24.7431 136.896 24.4164 137.245 24.1551C137.593 23.8719 137.974 23.6759 138.388 23.567C138.344 23.5234 138.29 23.4908 138.225 23.469C138.159 23.4472 138.083 23.4363 137.996 23.4363ZM149.372 23.3383C148.806 23.3383 148.229 23.6323 147.64 24.2204C147.052 24.7867 146.497 25.5708 145.974 26.5726C145.452 27.5527 144.972 28.6526 144.537 29.8723C144.123 31.092 143.796 32.3552 143.557 33.662C143.317 34.947 143.197 36.1776 143.197 37.3537C143.197 38.2249 143.306 38.8566 143.524 39.2486C143.764 39.6188 144.112 39.804 144.569 39.804C145.114 39.804 145.68 39.5208 146.268 38.9546C146.856 38.3883 147.412 37.626 147.934 36.6677C148.479 35.6876 148.958 34.5986 149.372 33.4007C149.786 32.181 150.112 30.9177 150.352 29.6109C150.592 28.3041 150.711 27.03 150.711 25.7885C150.711 24.8738 150.592 24.2422 150.352 23.8937C150.134 23.5234 149.808 23.3383 149.372 23.3383ZM139.342 35.1648C139.342 34.1847 139.473 33.1284 139.734 31.9959C140.017 30.8633 140.431 29.7525 140.976 28.6635C141.52 27.5527 142.195 26.5508 143.001 25.6579C143.829 24.7431 144.787 24.0244 145.876 23.5017C146.965 22.9572 148.196 22.6849 149.568 22.6849C151.136 22.6849 152.356 23.1314 153.227 24.0244C154.12 24.8956 154.566 26.2133 154.566 27.9774C154.566 28.9575 154.425 30.0139 154.142 31.1464C153.88 32.279 153.477 33.4007 152.933 34.5114C152.388 35.6004 151.702 36.6023 150.875 37.5171C150.069 38.4101 149.121 39.1288 148.032 39.6733C146.943 40.196 145.713 40.4574 144.341 40.4574C142.773 40.4574 141.542 40.0109 140.649 39.1179C139.778 38.2249 139.342 36.9072 139.342 35.1648ZM177.305 16.9023C179.701 16.9023 181.444 17.2944 182.533 18.0784C183.622 18.8407 184.166 19.8753 184.166 21.1821C184.166 22.3146 183.807 23.3383 183.088 24.2531C182.391 25.1678 181.433 25.941 180.213 26.5726C178.993 27.1825 177.61 27.6072 176.064 27.8468C178.373 28.021 180.061 28.5873 181.128 29.5456C182.217 30.5039 182.761 31.6474 182.761 32.976C182.761 34.1521 182.478 35.1757 181.912 36.0469C181.367 36.9181 180.616 37.6478 179.658 38.2358C178.721 38.8239 177.621 39.2704 176.358 39.5753C175.095 39.8584 173.755 40 172.34 40C171.599 40 170.782 39.9891 169.889 39.9673C169.018 39.9238 167.94 39.902 166.655 39.902C166.111 39.902 165.544 39.9129 164.956 39.9347C164.368 39.9347 163.813 39.9456 163.29 39.9673C162.767 39.9673 162.321 39.9782 161.951 40L162.081 39.3466C162.822 39.303 163.399 39.2159 163.813 39.0852C164.227 38.9546 164.553 38.6932 164.793 38.3012C165.032 37.9091 165.25 37.3211 165.446 36.537L169.759 20.3327C169.911 19.6793 169.998 19.1565 170.02 18.7645C170.042 18.3507 169.889 18.0458 169.563 17.8497C169.258 17.6319 168.681 17.523 167.831 17.523L167.995 16.8696C168.365 16.8914 168.8 16.9132 169.301 16.935C169.824 16.935 170.379 16.9459 170.967 16.9676C171.556 16.9676 172.1 16.9676 172.601 16.9676C173.538 16.9676 174.365 16.9568 175.084 16.935C175.824 16.9132 176.565 16.9023 177.305 16.9023ZM171.196 28.2715L171.327 27.7161H173.744C174.986 27.7161 176.042 27.4003 176.913 26.7686C177.806 26.1152 178.482 25.2658 178.939 24.2204C179.418 23.175 179.658 22.0751 179.658 20.9207C179.658 19.8317 179.44 18.9932 179.004 18.4051C178.59 17.8171 177.861 17.523 176.815 17.523C176.053 17.523 175.509 17.6755 175.182 17.9804C174.855 18.2636 174.572 18.8843 174.333 19.8426L169.922 36.537C169.791 37.0815 169.704 37.5606 169.661 37.9745C169.639 38.3883 169.748 38.7041 169.987 38.9219C170.227 39.1397 170.673 39.2486 171.327 39.2486C172.873 39.2486 174.136 38.9546 175.117 38.3665C176.097 37.7784 176.826 36.9726 177.305 35.9489C177.785 34.9035 178.024 33.7274 178.024 32.4206C178.024 31.6147 177.883 30.9068 177.6 30.297C177.338 29.6654 176.913 29.1753 176.325 28.8269C175.737 28.4566 174.953 28.2715 173.973 28.2715H171.196ZM188.702 37.2231C188.528 37.8111 188.484 38.2576 188.571 38.5625C188.68 38.8457 188.898 38.9872 189.225 38.9872C189.53 38.9872 189.856 38.8021 190.205 38.4318C190.575 38.0398 190.967 37.2884 191.381 36.1776L191.904 34.7075H192.525L191.708 37.0924C191.403 37.9636 191.022 38.6496 190.564 39.1506C190.107 39.6297 189.617 39.9673 189.094 40.1634C188.571 40.3594 188.038 40.4574 187.493 40.4574C186.796 40.4574 186.241 40.3267 185.827 40.0653C185.413 39.804 185.13 39.4446 184.978 38.9872C184.825 38.5299 184.771 38.0071 184.814 37.4191C184.858 36.8092 184.989 36.1558 185.206 35.4589L190.401 18.2091C190.619 17.4686 190.597 16.9241 190.336 16.5756C190.074 16.2271 189.41 16.0529 188.343 16.0529L188.571 15.3668C189.987 15.345 191.25 15.2252 192.361 15.0074C193.472 14.7679 194.539 14.4412 195.563 14.0274L188.702 37.2231ZM199.572 17.523C199.638 16.7172 199.964 16.0747 200.552 15.5955C201.14 15.1163 201.827 14.8768 202.611 14.8768C203.329 14.8768 203.874 15.0837 204.244 15.4975C204.636 15.8895 204.799 16.4014 204.734 17.033C204.669 17.7735 204.342 18.3942 203.754 18.8952C203.166 19.3961 202.48 19.6466 201.696 19.6466C200.977 19.6466 200.422 19.4506 200.03 19.0585C199.659 18.6447 199.507 18.1329 199.572 17.523ZM198.429 25.9192C198.821 24.7431 198.69 24.1551 198.037 24.1551C197.601 24.1551 197.209 24.3837 196.861 24.8411C196.512 25.2767 196.142 25.9846 195.75 26.9647L195.195 28.5002H194.574L195.423 26.0499C195.75 25.1787 196.142 24.5035 196.599 24.0244C197.057 23.5234 197.569 23.175 198.135 22.9789C198.701 22.7829 199.256 22.6849 199.801 22.6849C200.563 22.6849 201.14 22.8265 201.532 23.1096C201.925 23.3928 202.186 23.763 202.317 24.2204C202.447 24.6778 202.48 25.1787 202.415 25.7232C202.349 26.2459 202.229 26.7578 202.055 27.2587L198.592 37.2231C198.396 37.8111 198.342 38.2576 198.429 38.5625C198.516 38.8457 198.723 38.9872 199.05 38.9872C199.398 38.9872 199.747 38.8021 200.095 38.4318C200.465 38.0398 200.857 37.2884 201.271 36.1776L201.827 34.7075H202.447L201.63 37.0924C201.304 37.9636 200.912 38.6496 200.454 39.1506C199.997 39.6297 199.496 39.9673 198.952 40.1634C198.407 40.3594 197.873 40.4574 197.351 40.4574C196.392 40.4574 195.695 40.2505 195.26 39.8366C194.824 39.4011 194.606 38.813 194.606 38.0725C194.606 37.3102 194.781 36.439 195.129 35.4589L198.429 25.9192ZM205.85 39.51C206.024 39.5971 206.21 39.6733 206.406 39.7386C206.602 39.7822 206.874 39.804 207.222 39.804C208.05 39.804 208.736 39.5426 209.281 39.0199C209.847 38.4754 210.13 37.724 210.13 36.7657C210.13 36.0687 209.978 35.3609 209.673 34.6421C209.389 33.9234 208.954 33.1284 208.366 32.2572C207.843 31.4949 207.364 30.7435 206.928 30.003C206.515 29.2625 206.308 28.413 206.308 27.4547C206.308 26.5182 206.536 25.7014 206.994 25.0045C207.451 24.2857 208.104 23.7195 208.954 23.3056C209.803 22.8918 210.794 22.6849 211.927 22.6849C212.667 22.6849 213.397 22.772 214.116 22.9463C214.834 23.1205 215.423 23.4363 215.88 23.8937C216.337 24.3511 216.566 25.0154 216.566 25.8866C216.566 26.1915 216.501 26.5182 216.37 26.8667C216.239 27.1934 216.043 27.4765 215.782 27.7161C215.521 27.9557 215.172 28.0755 214.736 28.0755C214.279 28.0755 213.898 27.9012 213.593 27.5527C213.288 27.1825 213.136 26.7142 213.136 26.1479C213.136 25.647 213.223 25.1787 213.397 24.7431C213.593 24.3075 213.822 23.9264 214.083 23.5997C213.778 23.4254 213.343 23.3383 212.776 23.3383C211.992 23.3383 211.361 23.5888 210.881 24.0897C210.402 24.5907 210.163 25.2985 210.163 26.2133C210.163 26.6924 210.239 27.1498 210.391 27.5854C210.566 27.9992 210.794 28.4348 211.077 28.8922C211.382 29.3278 211.72 29.8396 212.09 30.4277C212.7 31.4078 213.179 32.2899 213.528 33.074C213.876 33.8363 214.05 34.6203 214.05 35.4262C214.05 36.3845 213.789 37.2448 213.266 38.0071C212.765 38.7694 212.068 39.3684 211.175 39.804C210.282 40.2396 209.237 40.4574 208.039 40.4574C207.19 40.4574 206.373 40.3376 205.589 40.098C204.827 39.8802 204.195 39.51 203.694 38.9872C203.215 38.4645 202.975 37.7458 202.975 36.831C202.975 36.3301 203.117 35.8727 203.4 35.4589C203.661 35.0233 204.075 34.8055 204.641 34.8055C205.208 34.8055 205.632 35.0342 205.916 35.4915C206.199 35.9489 206.34 36.5152 206.34 37.1904C206.34 37.6695 206.275 38.116 206.144 38.5299C206.035 38.9219 205.937 39.2486 205.85 39.51ZM218.754 39.51C218.929 39.5971 219.114 39.6733 219.31 39.7386C219.506 39.7822 219.778 39.804 220.126 39.804C220.954 39.804 221.64 39.5426 222.185 39.0199C222.751 38.4754 223.034 37.724 223.034 36.7657C223.034 36.0687 222.882 35.3609 222.577 34.6421C222.294 33.9234 221.858 33.1284 221.27 32.2572C220.747 31.4949 220.268 30.7435 219.832 30.003C219.419 29.2625 219.212 28.413 219.212 27.4547C219.212 26.5182 219.44 25.7014 219.898 25.0045C220.355 24.2857 221.009 23.7195 221.858 23.3056C222.707 22.8918 223.698 22.6849 224.831 22.6849C225.571 22.6849 226.301 22.772 227.02 22.9463C227.739 23.1205 228.327 23.4363 228.784 23.8937C229.241 24.3511 229.47 25.0154 229.47 25.8866C229.47 26.1915 229.405 26.5182 229.274 26.8667C229.143 27.1934 228.947 27.4765 228.686 27.7161C228.425 27.9557 228.076 28.0755 227.641 28.0755C227.183 28.0755 226.802 27.9012 226.497 27.5527C226.192 27.1825 226.04 26.7142 226.04 26.1479C226.04 25.647 226.127 25.1787 226.301 24.7431C226.497 24.3075 226.726 23.9264 226.987 23.5997C226.682 23.4254 226.247 23.3383 225.68 23.3383C224.896 23.3383 224.265 23.5888 223.786 24.0897C223.306 24.5907 223.067 25.2985 223.067 26.2133C223.067 26.6924 223.143 27.1498 223.295 27.5854C223.47 27.9992 223.698 28.4348 223.982 28.8922C224.286 29.3278 224.624 29.8396 224.994 30.4277C225.604 31.4078 226.083 32.2899 226.432 33.074C226.78 33.8363 226.954 34.6203 226.954 35.4262C226.954 36.3845 226.693 37.2448 226.17 38.0071C225.669 38.7694 224.973 39.3684 224.08 39.804C223.187 40.2396 222.141 40.4574 220.943 40.4574C220.094 40.4574 219.277 40.3376 218.493 40.098C217.731 39.8802 217.099 39.51 216.598 38.9872C216.119 38.4645 215.879 37.7458 215.879 36.831C215.879 36.3301 216.021 35.8727 216.304 35.4589C216.565 35.0233 216.979 34.8055 217.546 34.8055C218.112 34.8055 218.537 35.0342 218.82 35.4915C219.103 35.9489 219.244 36.5152 219.244 37.1904C219.244 37.6695 219.179 38.116 219.048 38.5299C218.939 38.9219 218.841 39.2486 218.754 39.51Z" fill="white"/>
<defs>
<clipPath id="clip0_205_491">
<rect width="56" height="55" fill="white"/>
</clipPath>
</defs>
</svg>
